<svg xmlns="http://www.w3.org/2000/svg" version="1.1" xmlns:xlink="http://www.w3.org/1999/xlink" xmlns:svgjs="http://svgjs.dev/svgjs" width="1000" height="1000" viewBox="0 0 1000 1000"><rect width="1000" height="1000" fill="#ffffff"></rect><g transform="matrix(0.7,0,0,0.7,149.59765512432688,280.37797570850205)"><svg viewBox="0 0 393 247" data-background-color="#ffffff" preserveAspectRatio="xMidYMid meet" height="628" width="1000" xmlns="http://www.w3.org/2000/svg" xmlns:xlink="http://www.w3.org/1999/xlink"><g id="tight-bounds" transform="matrix(1,0,0,1,0.22588790877077258,-0.09999999999999432)"><svg viewBox="0 0 392.5482160206455 247.2" height="247.2" width="392.5482160206455"><g><svg viewBox="0 0 395.52 249.07142615789593" height="247.2" width="392.5482160206455"><g><svg viewBox="0 0 395.52 249.07142615789593" height="249.07142615789593" width="395.52"><g><svg viewBox="0 0 395.52 249.07142615789593" height="249.07142615789593" width="395.52"><g><svg viewBox="0 0 395.52 215.5767874318692" height="215.5767874318692" width="395.52"><g transform="matrix(1,0,0,1,0,0)"><svg width="395.52" viewBox="4.449999809265137 -37.85000228881836 155.9499969482422 80.75000762939453" height="215.5767874318692" data-palette-color="#fce44d"><svg></svg><svg></svg><g class="undefined-text-0" data-fill-palette-color="primary" id="text-0"><path xmlns="http://www.w3.org/2000/svg" d="M4.45 0v-37.85c0.3 0.467 0.927 1.357 1.88 2.67 0.947 1.32 2.047 2.847 3.3 4.58 1.247 1.733 2.57 3.573 3.97 5.52 1.4 1.953 2.717 3.787 3.95 5.5 1.233 1.72 2.31 3.213 3.23 4.48 0.913 1.267 1.52 2.1 1.82 2.5v0c0.1-0.167 0.417-0.617 0.95-1.35 0.533-0.733 1.193-1.65 1.98-2.75 0.78-1.1 1.67-2.343 2.67-3.73 1-1.38 2.027-2.797 3.08-4.25 1.047-1.447 2.08-2.887 3.1-4.32 1.013-1.433 1.953-2.743 2.82-3.93 0.867-1.18 1.61-2.21 2.23-3.09 0.613-0.887 1.053-1.497 1.32-1.83v0 37.85h-5.8v-20.3c0-0.267 0.023-0.55 0.07-0.85 0.053-0.3 0.08-0.517 0.08-0.65v0c-0.3 0.4-0.773 1.073-1.42 2.02-0.653 0.953-1.403 2.037-2.25 3.25-0.853 1.22-1.747 2.503-2.68 3.85-0.933 1.353-1.817 2.63-2.65 3.83-0.833 1.2-1.567 2.257-2.2 3.17-0.633 0.92-1.067 1.563-1.3 1.93v0c-0.233-0.3-0.69-0.927-1.37-1.88-0.687-0.947-1.49-2.053-2.41-3.32-0.913-1.267-1.877-2.617-2.89-4.05-1.02-1.433-1.963-2.767-2.83-4-0.867-1.233-1.617-2.293-2.25-3.18-0.633-0.88-1-1.42-1.1-1.62v0c0 0.133 0.027 0.35 0.08 0.65 0.047 0.3 0.07 0.583 0.07 0.85v0 20.3zM47.1-18.1v0c0-2.5 0.483-4.877 1.45-7.13 0.967-2.247 2.293-4.22 3.98-5.92 1.68-1.7 3.637-3.043 5.87-4.03 2.233-0.98 4.633-1.47 7.2-1.47v0c2.533 0 4.927 0.49 7.18 1.47 2.247 0.987 4.213 2.33 5.9 4.03 1.68 1.7 3.013 3.673 4 5.92 0.98 2.253 1.47 4.63 1.47 7.13v0c0 2.567-0.49 4.967-1.47 7.2-0.987 2.233-2.32 4.19-4 5.87-1.687 1.687-3.653 3.013-5.9 3.98-2.253 0.967-4.647 1.45-7.18 1.45v0c-2.567 0-4.967-0.483-7.2-1.45-2.233-0.967-4.19-2.293-5.87-3.98-1.687-1.68-3.013-3.637-3.98-5.87-0.967-2.233-1.45-4.633-1.45-7.2zM52.55-18.05v0c0 1.833 0.343 3.557 1.03 5.17 0.68 1.62 1.62 3.03 2.82 4.23 1.2 1.2 2.6 2.15 4.2 2.85 1.6 0.7 3.3 1.05 5.1 1.05v0c1.8 0 3.493-0.35 5.08-1.05 1.58-0.7 2.963-1.65 4.15-2.85 1.18-1.2 2.11-2.61 2.79-4.23 0.687-1.613 1.03-3.353 1.03-5.22v0c0-1.833-0.343-3.56-1.03-5.18-0.68-1.613-1.62-3.02-2.82-4.22-1.2-1.2-2.59-2.15-4.17-2.85-1.587-0.7-3.28-1.05-5.08-1.05v0c-1.8 0-3.5 0.35-5.1 1.05-1.6 0.7-2.99 1.65-4.17 2.85-1.187 1.2-2.12 2.617-2.8 4.25-0.687 1.633-1.03 3.367-1.03 5.2zM84.75-36.25h5.4c0.233 0.567 0.617 1.49 1.15 2.77 0.533 1.287 1.143 2.747 1.83 4.38 0.68 1.633 1.397 3.367 2.15 5.2 0.747 1.833 1.453 3.567 2.12 5.2 0.667 1.633 1.267 3.09 1.8 4.37 0.533 1.287 0.917 2.213 1.15 2.78v0c0.033 0.067 0.117 0.3 0.25 0.7 0.133 0.4 0.233 0.75 0.3 1.05v0l0.5-1.75c0.233-0.567 0.617-1.493 1.15-2.78 0.533-1.28 1.133-2.737 1.8-4.37 0.667-1.633 1.377-3.367 2.13-5.2 0.747-1.833 1.463-3.567 2.15-5.2 0.68-1.633 1.287-3.093 1.82-4.38 0.533-1.28 0.917-2.203 1.15-2.77v0h5.4c-0.2 0.467-0.557 1.307-1.07 2.52-0.52 1.22-1.147 2.697-1.88 4.43-0.733 1.733-1.54 3.633-2.42 5.7-0.887 2.067-1.787 4.167-2.7 6.3-0.92 2.133-1.82 4.233-2.7 6.3-0.887 2.067-1.687 3.967-2.4 5.7-0.72 1.733-1.337 3.207-1.85 4.42-0.52 1.22-0.88 2.063-1.08 2.53v0zM121.55 0v-36.25h5.45v36.25zM160.4 0h-24.5v-36.25h23.8v4.95h-18.3v10.6h16.3v5.05h-16.3v10.6h19z" fill="#fce44d" fill-rule="nonzero" stroke="none" stroke-width="1" stroke-linecap="butt" stroke-linejoin="miter" stroke-miterlimit="10" stroke-dasharray="" stroke-dashoffset="0" font-family="none" font-weight="none" font-size="none" text-anchor="none" style="mix-blend-mode: normal" data-fill-palette-color="primary" opacity="1"></path><path xmlns="http://www.w3.org/2000/svg" d="M27.95 42.5h-23.5v-36.25h5.5v31.05h18zM33 42.5v-36.25h5.45v36.25zM68.1 8.25v0l-1.95 4.45c-1.367-0.5-2.723-0.9-4.07-1.2-1.353-0.3-2.647-0.45-3.88-0.45v0c-2.1 0-3.773 0.433-5.02 1.3-1.253 0.867-1.88 1.967-1.88 3.3v0c0 1.133 0.45 2.04 1.35 2.72 0.9 0.687 2.017 1.303 3.35 1.85 1.333 0.553 2.783 1.103 4.35 1.65 1.567 0.553 3.017 1.263 4.35 2.13 1.333 0.867 2.45 1.957 3.35 3.27 0.9 1.32 1.35 3.013 1.35 5.08v0c0 1.6-0.29 3.04-0.87 4.32-0.587 1.287-1.453 2.397-2.6 3.33-1.153 0.933-2.587 1.65-4.3 2.15-1.72 0.5-3.73 0.75-6.03 0.75v0c-1.467 0-2.79-0.1-3.97-0.3-1.187-0.2-2.253-0.46-3.2-0.78-0.953-0.313-1.787-0.653-2.5-1.02-0.72-0.367-1.33-0.7-1.83-1v0l2.4-4.75c1.333 0.767 2.817 1.383 4.45 1.85 1.633 0.467 3.117 0.7 4.45 0.7v0c0.667 0 1.493-0.083 2.48-0.25 0.98-0.167 1.92-0.46 2.82-0.88 0.9-0.413 1.677-0.97 2.33-1.67 0.647-0.7 0.97-1.583 0.97-2.65v0c0-0.967-0.257-1.793-0.77-2.48-0.52-0.68-1.203-1.28-2.05-1.8-0.853-0.513-1.82-0.98-2.9-1.4-1.087-0.413-2.197-0.843-3.33-1.29-1.133-0.453-2.24-0.93-3.32-1.43-1.087-0.5-2.053-1.11-2.9-1.83-0.853-0.713-1.537-1.547-2.05-2.5-0.52-0.947-0.78-2.087-0.78-3.42v0c0-1.233 0.25-2.45 0.75-3.65 0.5-1.2 1.25-2.267 2.25-3.2 1-0.933 2.243-1.683 3.73-2.25 1.48-0.567 3.203-0.85 5.17-0.85v0c1.2 0 2.377 0.1 3.53 0.3 1.147 0.2 2.187 0.423 3.12 0.67 0.933 0.253 1.727 0.497 2.38 0.73 0.647 0.233 1.07 0.4 1.27 0.5zM73.15 6.25h23.55v5.2h-9.15v31.05h-5.45v-31.05h-8.95z" fill="#fbeaab" fill-rule="nonzero" stroke="none" stroke-width="1" stroke-linecap="butt" stroke-linejoin="miter" stroke-miterlimit="10" stroke-dasharray="" stroke-dashoffset="0" font-family="none" font-weight="none" font-size="none" text-anchor="none" style="mix-blend-mode: normal" data-fill-palette-color="accent" opacity="1"></path></g></svg></g></svg></g><g transform="matrix(1,0,0,1,0,239.22683418428986)"><svg viewBox="0 0 232.20979200000002 9.844591973606072" height="9.844591973606072" width="232.20979200000002"><g transform="matrix(1,0,0,1,0,0)"><svg width="232.20979200000002" viewBox="5 -28.799999237060547 909.22998046875 38.54999923706055" height="9.844591973606072" data-palette-color="#fce44d"><path d="M5-28.75L5-28.75 21-28.75 21-22.85 11.3-22.85 11.3-17.2 21-17.2 21-11.35 11.3-11.35 11.3 0 5 0 5-28.75ZM39.45 0L39.45 0 39.45-11.9 34.75-14.35 39.45-16.6 39.45-25.3 33.55-28.75 23.25-28.75 23.25-22.85 33.15-22.85 33.15-17.2 23.25-17.2 23.25-11.35 33.15-11.35 33.15 0 39.45 0ZM74.55-18.55L74.55-12.85 68.65-9.4 60.65-9.4 60.65-13.25 68.2-13.25 68.2-17.35 60.65-17.35 60.65-22.05 68.65-22.05 74.55-18.55ZM68-6.95L74.55-6.95 74.55-3.45 68.65 0 60.65 0 60.65-5.3 68-5.3 68-6.95ZM44.35-18.55L44.35-3.45 50.25 0 58.2 0 58.2-5.3 50.65-5.3 50.65-9.4 58.2-9.4 58.2-13.25 50.65-13.25 50.65-17.35 58.2-17.35 58.2-22.05 50.25-22.05 44.35-18.55ZM83.55-0.05L83.55-22 89.8-22 89.8-19.85 97.5-22 97.5-17.3 89.8-17.3 89.8-0.05 83.55-0.05ZM120.3-18.55L114.6-22 112.45-22 106.05-19.25 99.5-22 99.5-17.3 99.5-0.05 106.05-0.05 106.05-17.3 114.05-17.3 114.05-0.05 120.3-0.05 120.3-18.55ZM158.99-18.55L158.99-12.85 153.09-9.4 145.09-9.4 145.09-13.25 152.64-13.25 152.64-17.35 145.09-17.35 145.09-22.05 153.09-22.05 158.99-18.55ZM152.44-6.95L158.99-6.95 158.99-3.45 153.09 0 145.09 0 145.09-5.3 152.44-5.3 152.44-6.95ZM128.79-18.55L128.79-3.45 134.69 0 142.64 0 142.64-5.3 135.09-5.3 135.09-9.4 142.64-9.4 142.64-13.25 135.09-13.25 135.09-17.35 142.64-17.35 142.64-22.05 134.69-22.05 128.79-18.55ZM167.99-0.05L167.99-22 174.24-22 174.24-19.85 181.94-22 181.94-17.3 174.24-17.3 174.24-0.05 167.99-0.05ZM204.74-18.55L199.04-22 196.89-22 190.49-19.25 183.94-22 183.94-17.3 183.94-0.05 190.49-0.05 190.49-17.3 198.49-17.3 198.49-0.05 204.74-0.05 204.74-18.55ZM214.24 0L214.24-28.8 220.54-28.8 220.54-21.9 228.04-21.9 228.04-17.25 220.54-17.25 220.54-5.25 227.84-5.25 227.84 0 214.24 0ZM244.04-3.45L244.04-18.45 238.34-21.9 230.24-21.9 230.24-17.25 237.94-17.25 237.94-5.25 230.44-5.25 230.44 0 238.34 0 244.04-3.45ZM282.24-18.55L282.24-12.85 276.34-9.4 268.34-9.4 268.34-13.25 275.89-13.25 275.89-17.35 268.34-17.35 268.34-22.05 276.34-22.05 282.24-18.55ZM275.69-6.95L282.24-6.95 282.24-3.45 276.34 0 268.34 0 268.34-5.3 275.69-5.3 275.69-6.95ZM252.04-18.55L252.04-3.45 257.94 0 265.89 0 265.89-5.3 258.34-5.3 258.34-9.4 265.89-9.4 265.89-13.25 258.34-13.25 258.34-17.35 265.89-17.35 265.89-22.05 257.94-22.05 252.04-18.55ZM291.23 0L291.23-21.85 297.48-21.85 297.48-19.7 304.98-21.85 304.98-17.2 297.48-17.2 297.48 0 291.23 0ZM313.73-15.05L313.73-19.1 307.23-21.85 307.23-15.05 313.73-15.05ZM342.73-17.2L342.73-21.85 350.23-21.85 350.23-17.2 342.73-17.2ZM350.23-7.5L356.53-7.5 356.53-3.45 350.83 0 342.73 0 342.73-5.25 350.23-5.25 350.23-7.5ZM329.73-19.35L340.48-25.3 340.48-5.25 340.48 0 334.23-3.45 334.23-17.2 329.73-17.15 329.73-19.35ZM363.03 0.05L363.03-28.75 369.18-28.75 369.18-22 376.78-22 376.78-17.2 369.18-17.2 369.18 0.05 363.03 0.05ZM392.78 0.05L392.78-18.55 387.13-22 378.98-22 378.98-17.2 386.48-17.2 386.48 0.05 392.78 0.05ZM431.47-18.55L431.47-12.85 425.57-9.4 417.57-9.4 417.57-13.25 425.12-13.25 425.12-17.35 417.57-17.35 417.57-22.05 425.57-22.05 431.47-18.55ZM424.92-6.95L431.47-6.95 431.47-3.45 425.57 0 417.57 0 417.57-5.3 424.92-5.3 424.92-6.95ZM401.27-18.55L401.27-3.45 407.17 0 415.12 0 415.12-5.3 407.57-5.3 407.57-9.4 415.12-9.4 415.12-13.25 407.57-13.25 407.57-17.35 415.12-17.35 415.12-22.05 407.17-22.05 401.27-18.55ZM455.47-0.05L455.47-22 461.72-22 461.72-19.85 469.42-22 469.42-17.3 461.72-17.3 461.72-0.05 455.47-0.05ZM492.22-18.55L486.52-22 484.37-22 477.97-19.25 471.42-22 471.42-17.3 471.42-0.05 477.97-0.05 477.97-17.3 485.97-17.3 485.97-0.05 492.22-0.05 492.22-18.55ZM500.72-3.5L500.72-18.55 506.57-22 514.47-22 514.47-17.3 506.97-17.3 506.97-5.4 514.47-5.4 514.47-0.05 506.57-0.05 500.72-3.5ZM530.07-3.5L530.07-18.55 524.22-22 516.26-22 516.26-17.3 523.82-17.3 523.82-5.4 516.26-5.4 516.26-0.05 524.22-0.05 530.07-3.5ZM534.56-20.05L540.86-21.85 549.11-9.3 549.11 0 547.16 0 534.56-20.05ZM565.56-20.05L559.51-21.85 551.61-9.3 551.61 0 553.41 0 565.56-20.05ZM570.06-22L576.36-22 576.36 0.05 570.06 0.05 570.06-22ZM576.26-28.7L576.26-24.05 570.06-24.05 570.06-28.7 576.26-28.7ZM614.56-18.55L614.56-12.85 608.66-9.4 600.66-9.4 600.66-13.25 608.21-13.25 608.21-17.35 600.66-17.35 600.66-22.05 608.66-22.05 614.56-18.55ZM608.01-6.95L614.56-6.95 614.56-3.45 608.66 0 600.66 0 600.66-5.3 608.01-5.3 608.01-6.95ZM584.36-18.55L584.36-3.45 590.26 0 598.21 0 598.21-5.3 590.66-5.3 590.66-9.4 598.21-9.4 598.21-13.25 590.66-13.25 590.66-17.35 598.21-17.35 598.21-22.05 590.26-22.05 584.36-18.55ZM652.35-9.7L652.35-3.45 646.65 0 638.6 0 638.6-5.25 646.3-5.25 646.3-9.3 638.75-9.3 638.75-13.2 646.65-13.2 652.35-9.7ZM622.55-12.75L622.55-18.4 628.25-21.85 636.35-21.85 636.35-17.2 628.85-17.2 628.85-13.2 636.35-13.2 636.35-9.3 628.25-9.3 622.55-12.75ZM622.55-6.95L628.85-6.95 628.85-5.25 636.35-5.25 636.35 0 628.25 0 622.55-3.45 622.55-6.95ZM652.35-15.05L646.1-15.05 646.1-17.2 638.6-17.2 638.6-21.85 646.65-21.85 652.35-18.4 652.35-15.05ZM675.85-6.35L675.85-21.9 682.15-21.9 682.15-6.9 689.65-6.9 689.65-2.9 681.6-2.9 675.85-6.35ZM675.85 2.25L682.15 2.25 682.15 4.55 689.65 4.55 689.65 9.75 681.6 9.75 675.85 6.3 675.85 2.25ZM699.45-21.9L705.75-21.9 705.75 6.3 699.45 9.75 691.95 9.75 691.95 4.55 699.45 4.55 699.45-2.9 691.95-2.9 691.95-6.9 699.45-6.9 699.45-21.9ZM710.65-3.5L710.65-18.55 716.5-22 724.4-22 724.4-17.3 716.9-17.3 716.9-5.4 724.4-5.4 724.4-0.05 716.5-0.05 710.65-3.5ZM740-3.5L740-18.55 734.15-22 726.2-22 726.2-17.3 733.75-17.3 733.75-5.4 726.2-5.4 726.2-0.05 734.15-0.05 740-3.5ZM778.29-21.85L778.29 0 772.04 0 772.04-2.25 764.54 0 764.54-5.25 772.04-5.25 772.04-21.85 778.29-21.85ZM748.49-21.85L748.49-3.45 754.14 0 762.24 0 762.24-5.25 754.79-5.25 754.79-21.85 748.49-21.85ZM803.29 0.05L803.29-28.75 809.69-28.75 809.69 0.05 803.29 0.05ZM814.69-3.5L814.69-18.55 820.54-22 828.44-22 828.44-17.3 820.94-17.3 820.94-5.4 828.44-5.4 828.44-0.05 820.54-0.05 814.69-3.5ZM844.04-3.5L844.04-18.55 838.19-22 830.24-22 830.24-17.3 837.79-17.3 837.79-5.4 830.24-5.4 830.24-0.05 838.19-0.05 844.04-3.5ZM848.53-20.05L854.83-21.85 863.08-9.3 863.08 0 861.13 0 848.53-20.05ZM879.53-20.05L873.48-21.85 865.58-9.3 865.58 0 867.38 0 879.53-20.05ZM914.23-18.55L914.23-12.85 908.33-9.4 900.33-9.4 900.33-13.25 907.88-13.25 907.88-17.35 900.33-17.35 900.33-22.05 908.33-22.05 914.23-18.55ZM907.68-6.95L914.23-6.95 914.23-3.45 908.33 0 900.33 0 900.33-5.3 907.68-5.3 907.68-6.95ZM884.03-18.55L884.03-3.45 889.93 0 897.88 0 897.88-5.3 890.33-5.3 890.33-9.4 897.88-9.4 897.88-13.25 890.33-13.25 890.33-17.35 897.88-17.35 897.88-22.05 889.93-22.05 884.03-18.55Z" opacity="1" transform="matrix(1,0,0,1,0,0)" fill="#fce44d" class="undefined-text-1" data-fill-palette-color="secondary" id="text-1"></path></svg></g></svg></g></svg></g></svg></g></svg></g><defs></defs></svg><rect width="392.5482160206455" height="247.2" fill="none" stroke="none" visibility="hidden"></rect></g></svg></g></svg>